# xmcd
#
# Track frame offsets:
#	150
#	13615
#	28823
#	42810
#	63771
#	76840
#	94400
#	106164
#	120244
#	136771
#	149697
#	166577
#	178954
#	194269
#	204183
#	219576
#	232397
#	250660
#
# Disc length: 3545 seconds
#
# Revision: 0
# Processed by: cddbd v1.5.2PL0 Copyright (c) Steve Scherf et al.
# Submitted via: EasyCDDAExtractor 10.2.0.1
#
DISCID=f10dd712
DTITLE=Various Artist - Hope Street-Christmas Miracles
DYEAR=2001
DGENRE=Gospel
TTITLE0=Del Way - It's Christmas Time Again
TTITLE1=Susie Luchsinger - New Kid In Town
TTITLE2=Mike Manuel - Take The X Out Of Christmas
TTITLE3=Kenvin Spencer - O Holy Night
TTITLE4=Gala Earlene - All Through The Year
TTITLE5=Gary R. Smith - White Christmas
TTITLE6=Judy DeRamus - Winter Wonderland
TTITLE7=Bill Townsend - Santa Got Stuck In The Chimney
TTITLE8=Margo Smith - The Littlest Star
TTITLE9=Benny Greenlee - Even Santa Ought To Know
TTITLE10=Tina Sadler - Calvary Seems So Far Away
TTITLE11=Gene Farington - Have A Country Christmas
TTITLE12=Jeff McLeod - The Spirit Of Christmas
TTITLE13=Glorya Wilson - Rockin Around The Christmas Tree
TTITLE14=Micki Farington - I'll Be Home For Christmas
TTITLE15=Gary R. Smith - Christmas In The Country
TTITLE16=The Piearcy's - The Same One
TTITLE17=Gladys Jones - Silent Night
EXTD=
EXTT0=
EXTT1=
EXTT2=
EXTT3=
EXTT4=
EXTT5=
EXTT6=
EXTT7=
EXTT8=
EXTT9=
EXTT10=
EXTT11=
EXTT12=
EXTT13=
EXTT14=
EXTT15=
EXTT16=
EXTT17=
PLAYORDER=
